<svg xmlns="http://www.w3.org/2000/svg" viewBox="0 0 100 100">
  <!-- 羊 - 薰衣草背景 -->
  <circle cx="50" cy="50" r="50" fill="#CE93D8"/>
  <!-- 毛茸茸的头 -->
  <circle cx="35" cy="30" r="10" fill="#FFF"/>
  <circle cx="50" cy="25" r="10" fill="#FFF"/>
  <circle cx="65" cy="30" r="10" fill="#FFF"/>
  <circle cx="30" cy="42" r="10" fill="#FFF"/>
  <circle cx="70" cy="42" r="10" fill="#FFF"/>
  <circle cx="35" cy="52" r="10" fill="#FFF"/>
  <circle cx="65" cy="52" r="10" fill="#FFF"/>
  <!-- 脸 -->
  <ellipse cx="50" cy="55" rx="18" ry="22" fill="#FFCCAA"/>
  <!-- 角 -->
  <path d="M32,32 Q26,22 30,28 Q24,18 28,24" fill="none" stroke="#C8A882" stroke-width="3" stroke-linecap="round"/>
  <path d="M68,32 Q74,22 70,28 Q76,18 72,24" fill="none" stroke="#C8A882" stroke-width="3" stroke-linecap="round"/>
  <!-- 眼睛 -->
  <circle cx="43" cy="50" r="3.5" fill="#3D3D3D"/>
  <circle cx="57" cy="50" r="3.5" fill="#3D3D3D"/>
  <circle cx="44.2" cy="48.5" r="1.2" fill="#FFF"/>
  <circle cx="58.2" cy="48.5" r="1.2" fill="#FFF"/>
  <!-- 鼻子 -->
  <ellipse cx="50" cy="60" rx="3" ry="2" fill="#E8853A"/>
  <!-- 嘴巴 -->
  <path d="M47,63 Q50,66 53,63" fill="none" stroke="#3D3D3D" stroke-width="1.2" stroke-linecap="round"/>
  <!-- 腮红 -->
  <circle cx="38" cy="60" r="4" fill="#FFB6C1" opacity="0.4"/>
  <circle cx="62" cy="60" r="4" fill="#FFB6C1" opacity="0.4"/>
</svg>
