<svg xmlns="http://www.w3.org/2000/svg" viewBox="0 0 100 100">
  <!-- 猪 - 浅粉背景 -->
  <circle cx="50" cy="50" r="50" fill="#F8BBD0"/>
  <!-- 耳朵 -->
  <path d="M28,28 Q22,18 18,30 Q20,40 30,38" fill="#FF8A9E"/>
  <path d="M72,28 Q78,18 82,30 Q80,40 70,38" fill="#FF8A9E"/>
  <!-- 脸 -->
  <circle cx="50" cy="55" r="28" fill="#FFAAB8"/>
  <!-- 眼睛 -->
  <circle cx="40" cy="48" r="4" fill="#3D3D3D"/>
  <circle cx="60" cy="48" r="4" fill="#3D3D3D"/>
  <circle cx="41.5" cy="46.5" r="1.5" fill="#FFF"/>
  <circle cx="61.5" cy="46.5" r="1.5" fill="#FFF"/>
  <!-- 鼻子 -->
  <ellipse cx="50" cy="60" rx="10" ry="7" fill="#FF8A9E"/>
  <circle cx="46" cy="60" r="2.5" fill="#E57388"/>
  <circle cx="54" cy="60" r="2.5" fill="#E57388"/>
  <!-- 嘴巴 -->
  <path d="M45,68 Q50,72 55,68" fill="none" stroke="#3D3D3D" stroke-width="1.2" stroke-linecap="round"/>
  <!-- 腮红 -->
  <circle cx="32" cy="58" r="5" fill="#FF8A9E" opacity="0.4"/>
  <circle cx="68" cy="58" r="5" fill="#FF8A9E" opacity="0.4"/>
</svg>
