<svg xmlns="http://www.w3.org/2000/svg" viewBox="0 0 100 100">
  <!-- 猫 - 橙色背景 -->
  <circle cx="50" cy="50" r="50" fill="#FF9A3C"/>
  <!-- 耳朵 -->
  <polygon points="25,18 35,38 15,38" fill="#FFF5E6" stroke="#E8853A" stroke-width="1.5"/>
  <polygon points="75,18 85,38 65,38" fill="#FFF5E6" stroke="#E8853A" stroke-width="1.5"/>
  <polygon points="27,22 33,36 19,36" fill="#FFB6C1"/>
  <polygon points="73,22 81,36 67,36" fill="#FFB6C1"/>
  <!-- 脸 -->
  <circle cx="50" cy="52" r="26" fill="#FFF5E6"/>
  <!-- 眼睛 -->
  <ellipse cx="40" cy="48" rx="4" ry="4.5" fill="#3D3D3D"/>
  <ellipse cx="60" cy="48" rx="4" ry="4.5" fill="#3D3D3D"/>
  <circle cx="41.5" cy="46.5" r="1.5" fill="#FFF"/>
  <circle cx="61.5" cy="46.5" r="1.5" fill="#FFF"/>
  <!-- 鼻子 -->
  <ellipse cx="50" cy="56" rx="3" ry="2" fill="#FFB6C1"/>
  <!-- 嘴巴 -->
  <path d="M47,58 Q50,62 53,58" fill="none" stroke="#3D3D3D" stroke-width="1.2" stroke-linecap="round"/>
  <!-- 胡须 -->
  <line x1="28" y1="53" x2="38" y2="55" stroke="#C0C0C0" stroke-width="1" stroke-linecap="round"/>
  <line x1="28" y1="57" x2="38" y2="57" stroke="#C0C0C0" stroke-width="1" stroke-linecap="round"/>
  <line x1="62" y1="55" x2="72" y2="53" stroke="#C0C0C0" stroke-width="1" stroke-linecap="round"/>
  <line x1="62" y1="57" x2="72" y2="57" stroke="#C0C0C0" stroke-width="1" stroke-linecap="round"/>
  <!-- 腮红 -->
  <circle cx="34" cy="58" r="4" fill="#FFB6C1" opacity="0.4"/>
  <circle cx="66" cy="58" r="4" fill="#FFB6C1" opacity="0.4"/>
</svg>
