<svg xmlns="http://www.w3.org/2000/svg" viewBox="0 0 100 100">
  <!-- 牛 - 深绿背景 -->
  <circle cx="50" cy="50" r="50" fill="#2E7D32"/>
  <!-- 角 -->
  <path d="M30,28 Q25,15 32,20" fill="none" stroke="#FFD54F" stroke-width="4" stroke-linecap="round"/>
  <path d="M70,28 Q75,15 68,20" fill="none" stroke="#FFD54F" stroke-width="4" stroke-linecap="round"/>
  <!-- 耳朵 -->
  <ellipse cx="24" cy="40" rx="8" ry="6" fill="#A0826D"/>
  <ellipse cx="24" cy="40" rx="5" ry="3.5" fill="#FFB6C1"/>
  <ellipse cx="76" cy="40" rx="8" ry="6" fill="#A0826D"/>
  <ellipse cx="76" cy="40" rx="5" ry="3.5" fill="#FFB6C1"/>
  <!-- 脸 -->
  <circle cx="50" cy="50" r="26" fill="#A0826D"/>
  <!-- 嘴部 -->
  <ellipse cx="50" cy="64" rx="16" ry="10" fill="#FFCCAA"/>
  <!-- 眼睛 -->
  <circle cx="40" cy="46" r="4" fill="#3D3D3D"/>
  <circle cx="60" cy="46" r="4" fill="#3D3D3D"/>
  <circle cx="41.5" cy="44.5" r="1.5" fill="#FFF"/>
  <circle cx="61.5" cy="44.5" r="1.5" fill="#FFF"/>
  <!-- 鼻孔 -->
  <circle cx="44" cy="62" r="3" fill="#8B6F47"/>
  <circle cx="56" cy="62" r="3" fill="#8B6F47"/>
  <!-- 嘴巴 -->
  <path d="M44,68 Q50,72 56,68" fill="none" stroke="#3D3D3D" stroke-width="1.2" stroke-linecap="round"/>
</svg>
